<svg xmlns="http://www.w3.org/2000/svg" width="192" height="192" viewBox="0 0 192 192">
  <rect width="192" height="192" rx="40" fill="#7f56d9"/>
  <g transform="translate(56, 44)" fill="none" stroke="#fff" stroke-width="8" stroke-linecap="round" stroke-linejoin="round">
    <path d="M 0 80 L 0 24 C 0 10.745 10.745 0 24 0 L 56 0 C 69.255 0 80 10.745 80 24 L 80 80"/>
    <path d="M 0 80 L 0 88 C 0 97.941 7.059 104 17 104 L 63 104 C 72.941 104 80 97.941 80 88 L 80 80"/>
    <path d="M 16 40 C 16 24 24 16 40 16 C 56 16 64 24 64 40"/>
  </g>
</svg>
