<svg xmlns="http://www.w3.org/2000/svg" width="512" height="512" viewBox="0 0 512 512">
  <rect width="512" height="512" rx="100" fill="#7f56d9"/>
  <g transform="translate(156, 116)" fill="none" stroke="#fff" stroke-width="18" stroke-linecap="round" stroke-linejoin="round">
    <path d="M 0 200 L 0 60 C 0 26.863 26.863 0 60 0 L 140 0 C 173.137 0 200 26.863 200 60 L 200 200"/>
    <path d="M 0 200 L 0 220 C 0 244.853 23.647 260 42 260 L 158 260 C 176.353 260 200 244.853 200 220 L 200 200"/>
    <path d="M 40 100 C 40 60 60 40 100 40 C 140 40 160 60 160 100"/>
  </g>
</svg>
